<svg xmlns="http://www.w3.org/2000/svg" width="943" height="952" viewBox="0 0 943 952">
  <defs>
    <linearGradient id="squares-a" x1="50%" x2="50%" y1="0%" y2="100%">
      <stop offset="0%" stop-color="#FFF"/>
      <stop offset="100%" stop-color="#FFF"/>
    </linearGradient>
  </defs>
  <g fill="url(#squares-a)" fill-rule="evenodd" stroke="#979797" stroke-width="3" opacity=".496" transform="rotate(-90 476 476)">
    <g opacity=".405" transform="translate(300.5)">
      <path d="M225.828204,24.3784862 L225.765629,127.252321 L122.891795,127.314895 L122.954369,24.4410603 L225.828204,24.3784862 Z" transform="rotate(45 174.36 75.847)"/>
      <path d="M126.716204,124.639109 L126.653629,227.512944 L23.7797949,227.575518 L23.842369,124.701684 L126.716204,124.639109 Z" transform="rotate(45 75.248 176.107)"/>
      <path d="M324.81472,124.764441 L324.752146,227.638275 L221.878311,227.700849 L221.940885,124.827015 L324.81472,124.764441 Z" transform="rotate(45 273.347 176.233)"/>
    </g>
    <g opacity=".405" transform="translate(0 199.5)">
      <path d="M126.414928,221.433279 L126.406361,324.251534 L23.5881061,324.260102 L23.5966736,221.441847 L126.414928,221.433279 Z" transform="rotate(45 75.002 272.847)"/>
      <path d="M230.625614,122.567109 L230.617046,225.385364 L127.798792,225.393932 L127.807359,122.575677 L230.625614,122.567109 Z" transform="rotate(45 179.212 173.98)"/>
      <path d="M230.625614,321.819234 L230.617046,424.637489 L127.798792,424.646056 L127.807359,321.827801 L230.625614,321.819234 Z" transform="rotate(45 179.212 373.233)"/>
      <path d="M329.508262,23.7009393 L329.499694,126.519194 L226.681439,126.527762 L226.690007,23.7095068 L329.508262,23.7009393 Z" transform="rotate(45 278.095 75.114)"/>
      <path d="M928.132186,221.433279 L928.123619,324.251534 L825.305364,324.260102 L825.313931,221.441847 L928.132186,221.433279 Z" transform="rotate(45 876.719 272.847)"/>
      <path d="M829.249538,123.585569 L829.240971,226.403823 L726.422716,226.412391 L726.431284,123.594136 L829.249538,123.585569 Z" transform="rotate(45 777.836 174.999)"/>
      <path d="M829.249538,321.568571 L829.240971,424.386826 L726.422716,424.395394 L726.431284,321.577139 L829.249538,321.568571 Z" transform="rotate(45 777.836 372.982)"/>
      <path d="M730.366891,24.7193984 L730.358323,127.537653 L627.540068,127.546221 L627.548636,24.7279659 L730.366891,24.7193984 Z" transform="rotate(45 678.953 76.133)"/>
    </g>
    <g opacity=".405" transform="translate(203 594.5)">
      <path d="M324.273557,221.433279 L324.26499,324.251534 L221.446735,324.260102 L221.455302,221.441847 L324.273557,221.433279 Z" transform="rotate(45 272.86 272.847)"/>
      <path d="M225.390909,122.567109 L225.382342,225.385364 L122.564087,225.393932 L122.572655,122.575677 L225.390909,122.567109 Z" transform="rotate(45 173.977 173.98)"/>
      <path d="M126.508262,23.7009393 L126.499694,126.519194 L23.6814394,126.527762 L23.6900069,23.7095068 L126.508262,23.7009393 Z" transform="rotate(45 75.095 75.114)"/>
      <path d="M423.156205,122.567109 L423.147638,225.385364 L320.329383,225.393932 L320.33795,122.575677 L423.156205,122.567109 Z" transform="rotate(45 371.743 173.98)"/>
      <path d="M527.366891,24.7193984 L527.358323,127.537653 L424.540068,127.546221 L424.548636,24.7279659 L527.366891,24.7193984 Z" transform="rotate(45 475.953 76.133)"/>
    </g>
  </g>
</svg>
